Coordinates
version=1
nRows=12
nColumns=24
inDegrees=yes

Units are S.I. units (second, meters, Newtons, ...)
Angles are in degrees.

endheader
time	pelvis_tilt	pelvis_list	pelvis_rotation	pelvis_tx	pelvis_ty	pelvis_tz	hip_flexion_r	hip_adduction_r	hip_rotation_r	knee_angle_r	ankle_angle_r	subtalar_angle_r	mtp_angle_r	hip_flexion_l	hip_adduction_l	hip_rotation_l	knee_angle_l	ankle_angle_l	subtalar_angle_l	mtp_angle_l	lumbar_extension	lumbar_bending	lumbar_rotation
      5.99000000	      8.17374661	      2.53798469	      8.65953780	      0.94709079	      0.88371690	      0.13391466	     18.82137808	     -2.92775196	    -11.23459064	    -14.13816825	     13.42550448	     14.13481194	      0.00000000	    -32.27580992	      2.87932796	      3.11285520	    -12.09908552	     10.27054926	     -6.61728431	      0.00000000	    -27.95562659	      2.30801956	    -10.92977412
      6.00000000	      8.16159121	      2.35254025	      9.11045866	      0.96484496	      0.88140499	      0.13430546	     19.43693315	     -2.76386174	    -10.96124657	    -17.11828966	     13.44324418	     13.80680135	      0.00000000	    -31.30358724	      1.96254618	      1.29430205	    -15.33584423	      9.39977251	     -4.18824417	      0.00000000	    -27.51076458	      2.79918108	    -11.22579088
      6.01000000	      8.23933842	      2.03196856	      9.53717164	      0.98237902	      0.87946160	      0.13476787	     19.91258534	     -2.39627746	    -10.73249208	    -19.89923172	     13.66968493	     13.12320068	      0.00000000	    -30.21910137	      0.90572388	      0.00733009	    -18.75625742	      7.64253689	     -2.77726145	      0.00000000	    -27.20460823	      3.44462562	    -11.43406078
      6.02000000	      8.44414674	      1.62536698	      9.93295182	      0.99951483	      0.87797850	      0.13524827	     20.23615123	     -1.88307987	    -10.55374659	    -22.56057186	     14.29838239	     12.26738889	      0.00000000	    -29.03644576	     -0.20731640	     -0.76158880	    -22.37734895	      5.18044458	     -2.13652989	      0.00000000	    -27.10959213	      4.20700422	    -11.59848322
      6.03000000	      8.72852527	      1.16106186	     10.25141607	      1.01616557	      0.87689845	      0.13578562	     20.45066383	     -1.24506520	    -10.36486922	    -25.12053997	     15.32704381	     11.38785409	      0.00000000	    -27.67405578	     -1.30201412	     -1.15727961	    -26.24869075	      2.35960376	     -1.89358044	      0.00000000	    -27.18903490	      5.02285213	    -11.69342898
      6.04000000	      9.14407714	      0.62712592	     10.50289845	      1.03232157	      0.87628989	      0.13634696	     20.43021150	     -0.46210747	    -10.21065036	    -27.48510840	     16.67529908	     10.62481859	      0.00000000	    -26.18797566	     -2.40861934	     -1.33547253	    -30.35576909	     -0.41846922	     -1.74789111	      0.00000000	    -27.49433531	      5.91595177	    -11.69379144
      6.05000000	      9.45318012	      0.15159340	     10.72067702	      1.04798695	      0.87593738	      0.13692083	     20.35284076	      0.31300105	     -9.95031569	    -29.57511303	     18.19541297	      9.89870909	      0.00000000	    -24.32288455	     -3.37131797	     -1.25318457	    -34.70572306	     -2.84958745	     -1.38993472	      0.00000000	    -27.74098255	      6.68922589	    -11.67551884
      6.06000000	      9.77449541	     -0.36148556	     10.97089369	      1.06320844	      0.87597264	      0.13746494	     20.01813109	      1.16975380	     -9.76397970	    -31.23475528	     19.76376218	      9.31681078	      0.00000000	    -22.20135392	     -4.38099913	     -1.10990901	    -39.25391939	     -4.51680878	     -0.63077399	      0.00000000	    -28.03228224	      7.48965958	    -11.63906702
      6.07000000	      9.98580746	     -0.87177329	     11.32908887	      1.07802245	      0.87630378	      0.13788779	     19.51770957	      2.02488001	     -9.66173728	    -32.39743076	     21.24721572	      8.80715359	      0.00000000	    -19.72168748	     -5.37466829	     -0.76242487	    -43.90249475	     -5.37505613	      0.48273087	      0.00000000	    -28.19169440	      8.27265361	    -11.60829983
      6.08000000	     10.04415111	     -1.35437080	     11.82624415	      1.09246191	      0.87690039	      0.13812523	     18.90694231	      2.81643600	     -9.69140343	    -33.07155124	     22.59572716	      8.36092594	      0.00000000	    -16.88613247	     -6.28945946	     -0.16677059	    -48.51329788	     -5.47777151	      1.80856870	      0.00000000	    -28.14728093	      9.02296349	    -11.65505395
      6.09000000	      9.96307208	     -1.78182996	     12.47780567	      1.10657508	      0.87781977	      0.13811864	     18.19076022	      3.49549528	     -9.89064841	    -33.29008461	     23.77771114	      7.99695853	      0.00000000	    -13.77223839	     -7.03688174	      0.72782630	    -52.92968112	     -4.97645859	      3.20008145	      0.00000000	    -27.89594421	      9.71904401	    -11.77942364
      6.10000000	      9.75792799	     -2.11090777	     13.23969020	      1.12043038	      0.87913157	      0.13786597	     17.37858033	      4.02588779	    -10.20756325	    -33.11229512	     24.79515705	      7.72380214	      0.00000000	    -10.48565143	     -7.49050275	      1.89357768	    -56.99747563	     -4.06831337	      4.50722405	      0.00000000	    -27.45320543	     10.30917949	    -11.98393217
